<svg xmlns="http://www.w3.org/2000/svg" xmlns:xlink="http://www.w3.org/1999/xlink" version="1.1" x="0px" y="0px" viewBox="0 0 100 100" enable-background="new 0 0 100 100" xml:space="preserve"><path fill="#000000" d="M39.6,36.6l-5.3-5c0.6-1.1,1-2.4,1-3.7c0-4.3-3.5-7.8-7.8-7.8s-7.8,3.5-7.8,7.8s3.5,7.8,7.8,7.8  c1.5,0,2.9-0.5,4.1-1.2l5.3,5C37.7,38.4,38.6,37.4,39.6,36.6z"/><path fill="#000000" d="M61.9,35.9l7-11.8c0.7,0.2,1.4,0.3,2.2,0.3c4.3,0,7.8-3.5,7.8-7.8c0-4.3-3.5-7.8-7.8-7.8  c-4.3,0-7.8,3.5-7.8,7.8c0,2.1,0.9,4.1,2.3,5.5l-7,11.8C59.7,34.5,60.8,35.1,61.9,35.9z"/><path fill="#000000" d="M86,45.8c-3.4,0-6.2,2.1-7.3,5.1L69,50c0,0.1,0,0.1,0,0.2c0,1.3-0.1,2.5-0.4,3.7l9.7,1  c0.6,3.7,3.8,6.6,7.7,6.6c4.3,0,7.8-3.5,7.8-7.8C93.8,49.3,90.3,45.8,86,45.8z"/><path fill="#000000" d="M59.2,76.5L57,67c-1.2,0.4-2.5,0.7-3.8,0.9l2.2,9.5c-2.5,1.3-4.2,3.9-4.2,6.9c0,4.3,3.5,7.8,7.8,7.8  c4.3,0,7.8-3.5,7.8-7.8C66.7,80.1,63.4,76.7,59.2,76.5z"/><path fill="#000000" d="M33.6,53.9L21.5,58c-1.4-2.1-3.8-3.6-6.5-3.6c-4.3,0-7.8,3.5-7.8,7.8c0,4.3,3.5,7.8,7.8,7.8  c4.3,0,7.8-3.5,7.8-7.8c0-0.2,0-0.3-0.1-0.5l12.2-4.1C34.4,56.5,33.9,55.3,33.6,53.9z"/><circle fill="#000000" cx="51.1" cy="50.2" r="13.4"/></svg>
